<mxfile host="app.diagrams.net" modified="2024-03-08T13:50:28.167Z" agent="Mozilla/5.0 (Windows NT 10.0; Win64; x64) AppleWebKit/537.36 (KHTML, like Gecko) Chrome/122.0.0.0 Safari/537.36" etag="WRi1Na5xZN3tAqFHu6SG" version="24.0.2" type="google">
  <diagram name="Página-1" id="oyixfq0VHjPVHZ6EHOQl">
    <mxGraphModel dx="1257" dy="634" grid="1" gridSize="10" guides="1" tooltips="1" connect="1" arrows="1" fold="1" page="1" pageScale="1" pageWidth="827" pageHeight="1169" math="0" shadow="0">
      <root>
        <mxCell id="0" />
        <mxCell id="1" parent="0" />
        <mxCell id="RJKmq4Qkfg8tTIcIR5wX-1" value="Checkin" style="points=[[0.145,0.145,0],[0.5,0,0],[0.855,0.145,0],[1,0.5,0],[0.855,0.855,0],[0.5,1,0],[0.145,0.855,0],[0,0.5,0]];shape=mxgraph.bpmn.event;html=1;verticalLabelPosition=bottom;labelBackgroundColor=#ffffff;verticalAlign=top;align=center;perimeter=ellipsePerimeter;outlineConnect=0;aspect=fixed;outline=standard;symbol=general;fillColor=#d5e8d4;strokeColor=#82b366;" vertex="1" parent="1">
          <mxGeometry x="20" y="290" width="50" height="50" as="geometry" />
        </mxCell>
        <mxCell id="RJKmq4Qkfg8tTIcIR5wX-2" value="Solicitar Documentos" style="points=[[0.25,0,0],[0.5,0,0],[0.75,0,0],[1,0.25,0],[1,0.5,0],[1,0.75,0],[0.75,1,0],[0.5,1,0],[0.25,1,0],[0,0.75,0],[0,0.5,0],[0,0.25,0]];shape=mxgraph.bpmn.task;whiteSpace=wrap;rectStyle=rounded;size=10;html=1;container=1;expand=0;collapsible=0;taskMarker=abstract;" vertex="1" parent="1">
          <mxGeometry x="100" y="275" width="100" height="80" as="geometry" />
        </mxCell>
        <mxCell id="RJKmq4Qkfg8tTIcIR5wX-3" style="edgeStyle=orthogonalEdgeStyle;rounded=0;orthogonalLoop=1;jettySize=auto;html=1;entryX=0;entryY=0.5;entryDx=0;entryDy=0;entryPerimeter=0;" edge="1" parent="1" source="RJKmq4Qkfg8tTIcIR5wX-1" target="RJKmq4Qkfg8tTIcIR5wX-2">
          <mxGeometry relative="1" as="geometry" />
        </mxCell>
        <mxCell id="RJKmq4Qkfg8tTIcIR5wX-4" value="Verificar reserva" style="points=[[0.25,0,0],[0.5,0,0],[0.75,0,0],[1,0.25,0],[1,0.5,0],[1,0.75,0],[0.75,1,0],[0.5,1,0],[0.25,1,0],[0,0.75,0],[0,0.5,0],[0,0.25,0]];shape=mxgraph.bpmn.task;whiteSpace=wrap;rectStyle=rounded;size=10;html=1;container=1;expand=0;collapsible=0;taskMarker=abstract;" vertex="1" parent="1">
          <mxGeometry x="240" y="275" width="100" height="80" as="geometry" />
        </mxCell>
        <mxCell id="RJKmq4Qkfg8tTIcIR5wX-5" style="edgeStyle=orthogonalEdgeStyle;rounded=0;orthogonalLoop=1;jettySize=auto;html=1;entryX=0;entryY=0.5;entryDx=0;entryDy=0;entryPerimeter=0;" edge="1" parent="1" source="RJKmq4Qkfg8tTIcIR5wX-2" target="RJKmq4Qkfg8tTIcIR5wX-4">
          <mxGeometry relative="1" as="geometry" />
        </mxCell>
        <mxCell id="RJKmq4Qkfg8tTIcIR5wX-6" value="" style="points=[[0.25,0.25,0],[0.5,0,0],[0.75,0.25,0],[1,0.5,0],[0.75,0.75,0],[0.5,1,0],[0.25,0.75,0],[0,0.5,0]];shape=mxgraph.bpmn.gateway2;html=1;verticalLabelPosition=bottom;labelBackgroundColor=#ffffff;verticalAlign=top;align=center;perimeter=rhombusPerimeter;outlineConnect=0;outline=none;symbol=none;" vertex="1" parent="1">
          <mxGeometry x="380" y="290" width="50" height="50" as="geometry" />
        </mxCell>
        <mxCell id="RJKmq4Qkfg8tTIcIR5wX-7" style="edgeStyle=orthogonalEdgeStyle;rounded=0;orthogonalLoop=1;jettySize=auto;html=1;entryX=0;entryY=0.5;entryDx=0;entryDy=0;entryPerimeter=0;" edge="1" parent="1" source="RJKmq4Qkfg8tTIcIR5wX-4" target="RJKmq4Qkfg8tTIcIR5wX-6">
          <mxGeometry relative="1" as="geometry" />
        </mxCell>
        <mxCell id="RJKmq4Qkfg8tTIcIR5wX-19" style="edgeStyle=orthogonalEdgeStyle;rounded=0;orthogonalLoop=1;jettySize=auto;html=1;entryX=0.5;entryY=1;entryDx=0;entryDy=0;entryPerimeter=0;" edge="1" parent="1" source="RJKmq4Qkfg8tTIcIR5wX-8" target="RJKmq4Qkfg8tTIcIR5wX-20">
          <mxGeometry relative="1" as="geometry">
            <mxPoint x="790" y="390" as="targetPoint" />
          </mxGeometry>
        </mxCell>
        <mxCell id="RJKmq4Qkfg8tTIcIR5wX-8" value="Não existe reserva" style="points=[[0.25,0,0],[0.5,0,0],[0.75,0,0],[1,0.25,0],[1,0.5,0],[1,0.75,0],[0.75,1,0],[0.5,1,0],[0.25,1,0],[0,0.75,0],[0,0.5,0],[0,0.25,0]];shape=mxgraph.bpmn.task;whiteSpace=wrap;rectStyle=rounded;size=10;html=1;container=1;expand=0;collapsible=0;taskMarker=abstract;" vertex="1" parent="1">
          <mxGeometry x="440" y="400" width="100" height="80" as="geometry" />
        </mxCell>
        <mxCell id="RJKmq4Qkfg8tTIcIR5wX-10" value="Notificar cliente" style="points=[[0.25,0,0],[0.5,0,0],[0.75,0,0],[1,0.25,0],[1,0.5,0],[1,0.75,0],[0.75,1,0],[0.5,1,0],[0.25,1,0],[0,0.75,0],[0,0.5,0],[0,0.25,0]];shape=mxgraph.bpmn.task;whiteSpace=wrap;rectStyle=rounded;size=10;html=1;container=1;expand=0;collapsible=0;taskMarker=abstract;" vertex="1" parent="1">
          <mxGeometry x="440" y="530" width="100" height="80" as="geometry" />
        </mxCell>
        <mxCell id="RJKmq4Qkfg8tTIcIR5wX-12" value="Reserva confirmada" style="points=[[0.25,0,0],[0.5,0,0],[0.75,0,0],[1,0.25,0],[1,0.5,0],[1,0.75,0],[0.75,1,0],[0.5,1,0],[0.25,1,0],[0,0.75,0],[0,0.5,0],[0,0.25,0]];shape=mxgraph.bpmn.task;whiteSpace=wrap;rectStyle=rounded;size=10;html=1;container=1;expand=0;collapsible=0;taskMarker=abstract;" vertex="1" parent="1">
          <mxGeometry x="430" y="130" width="100" height="80" as="geometry" />
        </mxCell>
        <mxCell id="RJKmq4Qkfg8tTIcIR5wX-13" value="Entregar chaves" style="points=[[0.25,0,0],[0.5,0,0],[0.75,0,0],[1,0.25,0],[1,0.5,0],[1,0.75,0],[0.75,1,0],[0.5,1,0],[0.25,1,0],[0,0.75,0],[0,0.5,0],[0,0.25,0]];shape=mxgraph.bpmn.task;whiteSpace=wrap;rectStyle=rounded;size=10;html=1;container=1;expand=0;collapsible=0;taskMarker=abstract;" vertex="1" parent="1">
          <mxGeometry x="580" y="130" width="100" height="80" as="geometry" />
        </mxCell>
        <mxCell id="RJKmq4Qkfg8tTIcIR5wX-15" style="edgeStyle=orthogonalEdgeStyle;rounded=0;orthogonalLoop=1;jettySize=auto;html=1;entryX=0;entryY=0.5;entryDx=0;entryDy=0;entryPerimeter=0;" edge="1" parent="1" source="RJKmq4Qkfg8tTIcIR5wX-12" target="RJKmq4Qkfg8tTIcIR5wX-13">
          <mxGeometry relative="1" as="geometry" />
        </mxCell>
        <mxCell id="RJKmq4Qkfg8tTIcIR5wX-17" style="edgeStyle=orthogonalEdgeStyle;rounded=0;orthogonalLoop=1;jettySize=auto;html=1;entryX=0.5;entryY=0;entryDx=0;entryDy=0;entryPerimeter=0;" edge="1" parent="1" source="RJKmq4Qkfg8tTIcIR5wX-8" target="RJKmq4Qkfg8tTIcIR5wX-10">
          <mxGeometry relative="1" as="geometry" />
        </mxCell>
        <mxCell id="RJKmq4Qkfg8tTIcIR5wX-18" value="FIM" style="points=[[0.145,0.145,0],[0.5,0,0],[0.855,0.145,0],[1,0.5,0],[0.855,0.855,0],[0.5,1,0],[0.145,0.855,0],[0,0.5,0]];shape=mxgraph.bpmn.event;html=1;verticalLabelPosition=bottom;labelBackgroundColor=#ffffff;verticalAlign=top;align=center;perimeter=ellipsePerimeter;outlineConnect=0;aspect=fixed;outline=end;symbol=terminate2;fillColor=#f8cecc;strokeColor=#b85450;" vertex="1" parent="1">
          <mxGeometry x="770" y="290" width="50" height="50" as="geometry" />
        </mxCell>
        <mxCell id="RJKmq4Qkfg8tTIcIR5wX-22" style="edgeStyle=orthogonalEdgeStyle;rounded=0;orthogonalLoop=1;jettySize=auto;html=1;exitX=1;exitY=0.5;exitDx=0;exitDy=0;exitPerimeter=0;" edge="1" parent="1" source="RJKmq4Qkfg8tTIcIR5wX-20" target="RJKmq4Qkfg8tTIcIR5wX-18">
          <mxGeometry relative="1" as="geometry" />
        </mxCell>
        <mxCell id="RJKmq4Qkfg8tTIcIR5wX-20" value="" style="points=[[0.25,0.25,0],[0.5,0,0],[0.75,0.25,0],[1,0.5,0],[0.75,0.75,0],[0.5,1,0],[0.25,0.75,0],[0,0.5,0]];shape=mxgraph.bpmn.gateway2;html=1;verticalLabelPosition=bottom;labelBackgroundColor=#ffffff;verticalAlign=top;align=center;perimeter=rhombusPerimeter;outlineConnect=0;outline=none;symbol=none;" vertex="1" parent="1">
          <mxGeometry x="690" y="290" width="50" height="50" as="geometry" />
        </mxCell>
        <mxCell id="RJKmq4Qkfg8tTIcIR5wX-21" style="edgeStyle=orthogonalEdgeStyle;rounded=0;orthogonalLoop=1;jettySize=auto;html=1;entryX=0.5;entryY=0;entryDx=0;entryDy=0;entryPerimeter=0;" edge="1" parent="1" source="RJKmq4Qkfg8tTIcIR5wX-13" target="RJKmq4Qkfg8tTIcIR5wX-20">
          <mxGeometry relative="1" as="geometry" />
        </mxCell>
        <mxCell id="RJKmq4Qkfg8tTIcIR5wX-24" style="edgeStyle=orthogonalEdgeStyle;rounded=0;orthogonalLoop=1;jettySize=auto;html=1;entryX=0.5;entryY=1;entryDx=0;entryDy=0;entryPerimeter=0;" edge="1" parent="1" source="RJKmq4Qkfg8tTIcIR5wX-8" target="RJKmq4Qkfg8tTIcIR5wX-6">
          <mxGeometry relative="1" as="geometry" />
        </mxCell>
        <mxCell id="RJKmq4Qkfg8tTIcIR5wX-25" style="edgeStyle=orthogonalEdgeStyle;rounded=0;orthogonalLoop=1;jettySize=auto;html=1;entryX=0;entryY=0.5;entryDx=0;entryDy=0;entryPerimeter=0;" edge="1" parent="1" source="RJKmq4Qkfg8tTIcIR5wX-6" target="RJKmq4Qkfg8tTIcIR5wX-12">
          <mxGeometry relative="1" as="geometry" />
        </mxCell>
      </root>
    </mxGraphModel>
  </diagram>
</mxfile>
